# xmcd
#
# Track frame offsets:
#	150
#	13624
#	55101
#	71196
#	86679
#	111894
#	140073
#	156654
#	173778
#	198685
#	217451
#
# Disc length: 4035 seconds
#
# Revision: 0
# Processed by: cddbd v1.5.2PL0 Copyright (c) Steve Scherf et al.
# Submitted via: audiograbber 1.83.01
#
DISCID=b10fc10b
DTITLE=Taj Mahal - The Real Thing
DYEAR=1971
DGENRE=Blues
TTITLE0=Fishin' Blues
TTITLE1=Ain't Gwine To Whistle Dixie
TTITLE2=Sweet Mama Janisse
TTITLE3=Going Up To The Country And Paint My Mailbox Blue
TTITLE4=Bid Kneed Gal
TTITLE5=You're Going To Need Somebody On Your Bond
TTITLE6=Tom And Sally Drake
TTITLE7=Diving Duck Blues
TTITLE8=John, Ain't It Hard
TTITLE9=She Caught The Katy And Left Me A Mule To Ride
TTITLE10=You Ain't No Street Walker Mama, Honey But I Do Like The Way
EXTD=
EXTT0=
EXTT1=
EXTT2=
EXTT3=
EXTT4=
EXTT5=
EXTT6=
EXTT7=
EXTT8=
EXTT9=
EXTT10=
PLAYORDER=
